<?xml version="1.0" standalone="no"?>
<!DOCTYPE svg PUBLIC "-//W3C//DTD SVG 20010904//EN"
 "http://www.w3.org/TR/2001/REC-SVG-20010904/DTD/svg10.dtd">
<svg version="1.0" xmlns="http://www.w3.org/2000/svg"
 width="2048.000000pt" height="2048.000000pt" viewBox="0 0 2048.000000 2048.000000"
 preserveAspectRatio="xMidYMid meet">

<g transform="translate(0.000000,2048.000000) scale(0.100000,-0.100000)"
fill="#000000" stroke="none">
<path d="M4325 16131 c-7 -12 -5 -11738 2 -11768 l5 -23 5909 0 5909 0 1 4383
c0 2410 0 4976 0 5702 -1 726 -1 1409 -1 1518 l0 197 -5909 0 c-3646 0 -5912
-4 -5916 -9z m11413 -5888 l-3 -5498 -5495 0 -5495 0 -3 5485 c-1 3017 0 5491
3 5498 3 9 1113 12 5500 12 l5495 0 -2 -5497z"/>
<path d="M10038 13462 l-518 -2 0 -866 c0 -480 4 -863 9 -860 10 7 382 619
560 923 18 32 84 141 146 243 209 343 326 545 323 555 -2 7 -175 9 -520 7z"/>
<path d="M5847 13453 c-4 -3 -7 -1455 -7 -3226 l0 -3219 23 6 c12 3 300 6 640
6 l617 0 0 2262 0 2263 34 -50 c57 -85 245 -383 321 -510 107 -179 154 -254
195 -315 39 -58 98 -152 278 -445 61 -99 135 -218 165 -265 51 -80 138 -220
308 -495 41 -66 79 -128 84 -137 6 -9 77 -124 159 -255 82 -131 162 -259 178
-285 l30 -48 193 0 192 0 25 38 c14 20 86 134 159 252 74 118 137 220 142 225
4 6 81 129 170 275 90 146 180 292 201 325 22 33 47 74 56 90 18 31 100 166
211 345 36 58 72 116 80 130 8 13 20 30 27 38 6 7 17 23 23 35 12 22 190 309
295 474 104 163 226 356 277 438 28 44 54 82 57 85 4 3 17 20 28 38 l20 33 6
-293 c3 -161 5 -331 3 -378 -1 -47 -1 -140 1 -207 l2 -123 630 0 c347 0 630 3
630 8 0 4 1 401 3 882 l2 875 80 -1 c154 -2 378 -63 508 -140 83 -48 222 -173
268 -241 44 -66 104 -189 123 -252 17 -57 40 -185 51 -283 9 -81 -12 -276 -41
-377 -26 -90 -85 -214 -137 -290 -37 -56 -163 -180 -220 -220 -108 -73 -270
-136 -448 -173 -114 -23 -114 -23 -904 -23 l-790 0 -1 155 c0 85 -1 184 -2
219 l-2 64 -63 -104 c-35 -57 -86 -140 -114 -184 -29 -44 -75 -118 -104 -165
-29 -47 -94 -150 -144 -230 -50 -80 -136 -217 -190 -305 -54 -88 -113 -182
-130 -210 -18 -27 -68 -108 -111 -178 -44 -70 -96 -156 -118 -190 -21 -34 -74
-123 -119 -197 -44 -74 -90 -148 -103 -165 -12 -16 -34 -55 -50 -85 l-29 -55
3 -837 2 -838 633 -2 c347 -2 633 -3 635 -2 1 0 3 486 5 1080 l2 1079 870 6
c752 5 887 8 995 23 279 39 532 107 740 200 629 281 1034 756 1185 1391 39
159 55 318 55 526 0 216 -11 332 -46 504 -84 410 -267 752 -547 1021 -115 111
-218 188 -361 272 -317 184 -517 251 -941 315 -132 19 -188 21 -1020 24 l-880
4 -24 -38 c-28 -43 -272 -449 -465 -773 -71 -118 -137 -228 -147 -245 -22 -35
-331 -549 -427 -710 -66 -110 -239 -398 -537 -894 -88 -146 -164 -266 -169
-266 -9 0 -73 102 -256 410 -139 232 -269 449 -288 480 -11 17 -28 46 -39 65
-11 19 -71 118 -133 220 -139 228 -299 495 -320 535 -9 17 -57 95 -106 175
-83 134 -149 242 -199 327 -59 99 -151 252 -170 283 -20 31 -131 221 -188 320
-11 19 -31 52 -45 73 l-25 37 -727 0 c-400 0 -730 -3 -733 -7z"/>
<path d="M11038 8930 c-1 -5 -2 -439 0 -962 l2 -953 627 3 c345 2 629 4 630 6
2 2 4 1091 3 1874 l0 42 -629 0 c-410 0 -630 -3 -633 -10z"/>
</g>
</svg>
